<svg xmlns="http://www.w3.org/2000/svg" xmlns:xlink="http://www.w3.org/1999/xlink" viewBox="0 0 1920 250"><path d="M0 61L35.5 62.8C71 64.7 142 68.3 213.2 89C284.3 109.7 355.7 147.3 426.8 168C498 188.7 569 192.3 640 184.7C711 177 782 158 853.2 141.2C924.3 124.3 995.7 109.7 1066.8 106.8C1138 104 1209 113 1280 118C1351 123 1422 124 1493.2 133.7C1564.3 143.3 1635.7 161.7 1706.8 167.7C1778 173.7 1849 167.3 1884.5 164.2L1920 161L1920 251L1884.5 251C1849 251 1778 251 1706.8 251C1635.7 251 1564.3 251 1493.2 251C1422 251 1351 251 1280 251C1209 251 1138 251 1066.8 251C995.7 251 924.3 251 853.2 251C782 251 711 251 640 251C569 251 498 251 426.8 251C355.7 251 284.3 251 213.2 251C142 251 71 251 35.5 251L0 251Z" fill="#a2d9ff"/></svg>