<svg xmlns="http://www.w3.org/2000/svg" xmlns:xlink="http://www.w3.org/1999/xlink" viewBox="0 0 1920 250"><path d="M0 198L35.5 181C71 164 142 130 213.2 107.8C284.3 85.7 355.7 75.3 426.8 69.3C498 63.3 569 61.7 640 71.3C711 81 782 102 853.2 115.7C924.3 129.3 995.7 135.7 1066.8 124.7C1138 113.7 1209 85.3 1280 73.8C1351 62.3 1422 67.7 1493.2 69.2C1564.3 70.7 1635.7 68.3 1706.8 83.2C1778 98 1849 130 1884.5 146L1920 162L1920 0L1884.5 0C1849 0 1778 0 1706.8 0C1635.7 0 1564.3 0 1493.2 0C1422 0 1351 0 1280 0C1209 0 1138 0 1066.8 0C995.7 0 924.3 0 853.2 0C782 0 711 0 640 0C569 0 498 0 426.8 0C355.7 0 284.3 0 213.2 0C142 0 71 0 35.5 0L0 0Z" fill="#a2d9ff"/></svg>